<svg width="56" height="56" viewBox="0 0 56 56" fill="none" xmlns="http://www.w3.org/2000/svg">
<path d="M28.033 4.69962C15.1464 4.69962 4.69962 15.1464 4.69962 28.033C4.69962 40.92 15.1464 51.3663 28.033 51.3663C40.92 51.3663 51.3663 40.92 51.3663 28.033C51.3663 15.1464 40.92 4.69962 28.033 4.69962ZM28.033 9.36629C38.3416 9.36629 46.6996 17.7236 46.6996 28.033C46.6996 38.3416 38.3416 46.6996 28.033 46.6996C17.7236 46.6996 9.36629 38.3416 9.36629 28.033C9.36629 17.7236 17.7236 9.36652 28.033 9.36629ZM28.033 16.3663C26.745 16.3663 25.6996 17.4109 25.6996 18.6996V31.6776L20.3766 26.3553L17.0224 29.7106L26.3553 39.044C27.2676 39.954 28.7983 39.954 29.7106 39.044L39.044 29.7106L35.6886 26.3553L30.3663 31.6776V18.6996C30.3663 17.4109 29.321 16.3663 28.033 16.3663Z" fill="#2F3132"/>
</svg>
