<svg width="24" height="24" viewBox="0 0 24 24" fill="none" xmlns="http://www.w3.org/2000/svg">
<path d="M10.0141 1.95316C5.59583 1.95316 2.01413 5.53516 2.01413 9.95317C2.01413 14.3712 5.59583 17.9532 10.0141 17.9532C11.8508 17.9532 13.5917 17.3222 14.942 16.2822L19.2953 20.6722C19.6859 21.0622 20.3423 21.0622 20.7329 20.6722C21.1234 20.2812 21.1234 19.6252 20.7329 19.2342L16.3494 14.8742C17.3902 13.5242 18.0141 11.7902 18.0141 9.95317C18.0141 5.53516 14.4324 1.95316 10.0141 1.95316ZM10.0141 3.95316C13.3278 3.95316 16.0141 6.63917 16.0141 9.95317C16.0141 13.2672 13.3278 15.9532 10.0141 15.9532C6.70043 15.9532 4.01413 13.2672 4.01413 9.95317C4.01413 6.63917 6.70043 3.95316 10.0141 3.95316Z" fill="#2F3132"/>
</svg>
