<svg width="21" height="20" viewBox="0 0 21 20" fill="none" xmlns="http://www.w3.org/2000/svg">
<path d="M1.01421 -0.00101739C0.461708 0.0043826 0.00880794 0.446682 0.0142079 0.998982C0.019608 1.55128 0.461708 2.00438 1.01421 1.99898H2.48301L5.38921 8.77998C5.52271 9.09198 5.74151 9.37398 5.92041 9.59298C5.37341 9.93498 4.92681 10.416 4.60801 10.999C4.21651 11.715 4.06731 12.425 4.04541 12.937V13.124C4.08121 13.379 4.17861 13.702 4.38921 14.03C4.76471 14.615 5.37321 14.968 6.17041 14.968C6.58691 14.968 16.7066 14.998 17.0142 14.999C17.5667 15 18.0131 14.551 18.0142 13.999C18.0153 13.447 17.5667 13 17.0142 12.999C16.7066 12.998 6.58881 12.968 6.17041 12.968C6.09231 12.968 6.07001 12.975 6.04541 12.937C6.06761 12.696 6.15841 12.333 6.35801 11.968C6.69751 11.347 7.23812 10.999 8.17042 10.999H8.82672L14.858 10.968C16.1982 10.968 17.6098 10.046 18.1392 8.81098L19.8267 4.93648C20.4813 3.40958 19.5198 1.96779 17.858 1.96779L4.67041 1.99898L4.32671 1.18648C4.02831 0.490482 3.24041 -0.00841739 2.48301 -0.00101739H1.01421ZM17.858 3.96778C18.0818 3.96778 18.0405 3.94808 17.9517 4.15518L16.3267 7.99898C16.1126 8.49798 15.4014 8.96798 14.858 8.96798L9.17042 8.99898H8.82672C8.23112 8.99898 7.46901 8.48698 7.23301 7.93648L5.54541 3.99898L17.858 3.96778ZM5.51421 16.999C4.68581 16.999 4.01421 17.671 4.01421 18.499C4.01421 19.327 4.68581 19.999 5.51421 19.999C6.34261 19.999 7.01421 19.327 7.01421 18.499C7.01421 17.671 6.34261 16.999 5.51421 16.999ZM16.5142 16.999C15.6858 16.999 15.0142 17.671 15.0142 18.499C15.0142 19.327 15.6858 19.999 16.5142 19.999C17.3426 19.999 18.0142 19.327 18.0142 18.499C18.0142 17.671 17.3426 16.999 16.5142 16.999Z" fill="#494949"/>
</svg>
