<svg width="21" height="20" viewBox="0 0 21 20" fill="none" xmlns="http://www.w3.org/2000/svg">
<path d="M10.0142 -0.00109863C4.49136 -0.00109863 0.0141602 4.4759 0.0141602 9.9989C0.0141602 15.5219 4.49126 19.9989 10.0142 19.9989C15.537 19.9989 20.0142 15.5219 20.0142 9.9989C20.0142 4.4759 15.537 -0.00109863 10.0142 -0.00109863ZM10.0142 1.9989C14.4325 1.9989 18.0142 5.5809 18.0142 9.9989C18.0142 14.4169 14.4325 17.9989 10.0142 17.9989C5.59586 17.9989 2.01416 14.4169 2.01416 9.9989C2.01416 5.5809 5.59586 1.9989 10.0142 1.9989ZM10.0142 3.9989C9.46186 3.9989 9.01416 4.4469 9.01416 4.9989V9.9989C9.01416 10.2639 9.10786 10.5299 9.29536 10.7179L12.2954 13.7179C12.686 14.1079 13.3424 14.1079 13.733 13.7179C14.1235 13.3269 14.1235 12.6709 13.733 12.2799L11.0142 9.56091V4.9989C11.0142 4.4469 10.5665 3.9989 10.0142 3.9989Z" fill="#494949"/>
</svg>
